<svg xmlns="http://www.w3.org/2000/svg" viewBox="0 0 1020 340" width="100%" height="100%">
  <defs>
    <style>
      /* 💡 PARA MUDAR A COR:
         Substitua o #ff6a00 abaixo pela cor que desejar.
         Exemplo para Verde: #7ee359
      */
      :root {
        --cor-principal: #7ee359;
      }
      
      .fundo-mutavel { fill: var(--cor-principal); }
      .detalhe-mutavel-fill { fill: var(--cor-principal); }
      .detalhe-mutavel-stroke { stroke: var(--cor-principal); }
      .texto-principal { font-family: 'Arial Black', Arial, sans-serif; font-weight: 900; fill: #000000; }
      .texto-secundario { font-family: Arial, sans-serif; font-weight: 300; fill: #6d6e71; }
    </style>
  </defs>

  <circle cx="170" cy="170" r="145" class="fundo-mutavel" />

  <g fill="#ffffff" stroke="#ffffff" stroke-width="1.5" stroke-linejoin="round" stroke-linecap="round">
    <circle cx="118" cy="188" r="48" fill="none" stroke-width="6" />
    <circle cx="118" cy="188" r="35" fill="none" stroke-width="4.5" />
    <circle cx="118" cy="188" r="16" fill="#ffffff" />
    <path d="M 118 135 L 118 144 M 118 232 L 118 241 M 65 188 L 74 188 M 162 188 L 171 188 M 81 151 L 88 157 M 155 219 L 162 225 M 81 225 L 88 219 M 155 151 L 162 157" stroke-width="6" />
    
    <path d="M 68 185 C 68 140, 108 120, 160 128 C 171 132, 174 144, 174 151" fill="none" stroke-width="6" />
    
    <circle cx="231" cy="204" r="26" fill="none" stroke-width="5" />
    <circle cx="231" cy="204" r="10" fill="#ffffff" />
    <path d="M 231 174 L 231 180 M 231 228 L 231 234 M 201 204 L 207 204 M 255 204 L 261 204 M 210 183 L 214 187 M 248 221 L 252 225 M 210 225 L 214 221 M 248 183 L 252 187" stroke-width="4" />

    <path d="M 117 125 L 117 105 C 117 102, 120 99, 125 99 L 176 99 C 181 99, 184 102, 185 107 L 202 157 L 176 157" fill="none" stroke-width="6" />
    <path d="M 144 99 L 144 128 L 187 128" fill="none" stroke-width="4" />
    <path d="M 176 99 L 188 128" fill="none" stroke-width="4" />

    <path d="M 174 151 L 246 156 C 252 156, 254 159, 254 165 L 254 197 L 202 197 Z" fill="#ffffff" />
    
    <rect x="168" y="173" width="18" height="9" fill="none" stroke-width="4.5" />
    <rect x="168" y="185" width="18" height="7" fill="none" stroke-width="4.5" />

    <path d="M 223 156 L 223 125 C 223 119, 219 117, 219 113 L 220 107" fill="none" stroke-width="4.5" />

    <ellipse cx="239" cy="171" rx="6" ry="4" class="detalhe-mutavel-fill" stroke="none" />
    <line x1="212" y1="170" x2="212" y2="188" class="detalhe-mutavel-stroke" stroke-width="4" />
    <line x1="220" y1="170" x2="220" y2="188" class="detalhe-mutavel-stroke" stroke-width="4" />
    <line x1="228" y1="170" x2="228" y2="188" class="detalhe-mutavel-stroke" stroke-width="4" />
  </g>

  <text x="345" y="178" font-size="115" class="texto-principal" letter-spacing="-2">SIAG</text>
  <text x="340" y="255" font-size="51" class="texto-secundario" letter-spacing="1">Agricola Cooperativas</text>
</svg>
